<svg xmlns="http://www.w3.org/2000/svg" version="1.1" xmlns:xlink="http://www.w3.org/1999/xlink" xmlns:svgjs="http://svgjs.dev/svgjs" width="1500" height="219" viewBox="0 0 1500 219"><g transform="matrix(1,0,0,1,-0.9090909090909918,-1.2249324488478521)"><svg viewBox="0 0 396 58" data-background-color="#ffffff" preserveAspectRatio="xMidYMid meet" height="219" width="1500" xmlns="http://www.w3.org/2000/svg" xmlns:xlink="http://www.w3.org/1999/xlink"><g id="tight-bounds" transform="matrix(1,0,0,1,0.2400000000000091,0.324411333484818)"><svg viewBox="0 0 395.52 57.351177333030364" height="57.351177333030364" width="395.52"><g><svg viewBox="0 0 475.1140974195548 68.89247788868212" height="57.351177333030364" width="395.52"><g><rect width="4.49550995154742" height="59.81980713923193" x="63.330236809506346" y="4.536335374725095" fill="#ffffff" opacity="1" stroke-width="0" stroke="transparent" fill-opacity="1" class="rect-yte-0" data-fill-palette-color="primary" rx="1%" id="yte-0" data-palette-color="#ffffff"></rect></g><g transform="matrix(1,0,0,1,79.59409741955486,9.52131930299442)"><svg viewBox="0 0 395.52 49.84983928269328" height="49.84983928269328" width="395.52"><g id="textblocktransform"><svg viewBox="0 0 395.52 49.84983928269328" height="49.84983928269328" width="395.52" id="textblock"><g><svg viewBox="0 0 395.52 49.84983928269328" height="49.84983928269328" width="395.52"><g transform="matrix(1,0,0,1,0,0)"><svg width="395.52" viewBox="1.5 -36.75 295.52 37.25" height="49.84983928269328" data-palette-color="#ffffff"><path d="M10.9 0L10.9-31.85 1.5-31.85 1.5-36.75 25.95-36.75 25.95-31.85 16.45-31.85 16.45 0 10.9 0ZM27.35 0L27.35-22.95 32.75-22.95 32.75-18.45Q33.55-20.75 35.35-22.15 37.15-23.55 39.45-23.55L39.45-23.55Q41.05-23.55 41.65-23.25L41.65-23.25 40.9-17.8Q40.45-18.1 38.95-18.1L38.95-18.1Q36.6-18.1 34.67-16.6 32.75-15.1 32.75-11.8L32.75-11.8 32.75 0 27.35 0ZM55.6 0.5Q52.5 0.5 49.87-0.98 47.25-2.45 45.67-5.18 44.1-7.9 44.1-11.55L44.1-11.55Q44.1-15.15 45.47-17.85 46.85-20.55 49.4-22.05 51.95-23.55 55.4-23.55L55.4-23.55Q57.4-23.55 59.15-22.85 60.9-22.15 62.1-21.13 63.3-20.1 63.7-19.1L63.7-19.1 63.8-22.95 68.95-22.95 68.95 0 63.85 0 63.75-4.05Q62.9-2.25 60.65-0.88 58.4 0.5 55.6 0.5L55.6 0.5ZM56.5-4Q59.34-4 61.3-5.98 63.25-7.95 63.25-11.15L63.25-11.15 63.25-11.5Q63.25-13.65 62.35-15.35 61.45-17.05 59.9-18 58.34-18.95 56.5-18.95L56.5-18.95Q53.3-18.95 51.55-16.88 49.8-14.8 49.8-11.5L49.8-11.5Q49.8-8.15 51.52-6.08 53.25-4 56.5-4L56.5-4ZM86.89 0.5Q83.49 0.5 80.77-0.98 78.04-2.45 76.44-5.23 74.84-8 74.84-11.75L74.84-11.75Q74.84-15.3 76.32-17.98 77.79-20.65 80.47-22.1 83.14-23.55 86.64-23.55L86.64-23.55Q89.29-23.55 91.22-22.88 93.14-22.2 94.24-21.2L94.24-21.2 91.84-16.85Q89.74-18.95 87.09-18.95L87.09-18.95Q83.89-18.95 82.22-17 80.54-15.05 80.54-11.8L80.54-11.8Q80.54-8.1 82.27-6.05 83.99-4 87.09-4L87.09-4Q88.64-4 90.12-4.45 91.59-4.9 92.39-5.5L92.39-5.5 94.34-1.7Q93.24-0.85 91.27-0.18 89.29 0.5 86.89 0.5L86.89 0.5ZM111.54-13.35L120.24 0 113.89 0 109.24-7.5 107.94-10.05 104.94-6.8 104.94 0 99.74 0 99.74-36.75 104.89-36.75 104.89-16.6 104.79-12.7 113.54-22.95 120.19-22.95 111.54-13.35ZM124.84 0L124.84-36.75 130.44-36.75 130.44-21.75 143.39-21.75 143.39-36.75 148.99-36.75 148.99 0 143.39 0 143.39-17.05 130.44-17.05 130.44 0 124.84 0ZM166.53 0.5Q163.44 0.5 160.81-0.98 158.19-2.45 156.61-5.18 155.03-7.9 155.03-11.55L155.03-11.55Q155.03-15.15 156.41-17.85 157.78-20.55 160.34-22.05 162.89-23.55 166.34-23.55L166.34-23.55Q168.34-23.55 170.09-22.85 171.84-22.15 173.04-21.13 174.24-20.1 174.64-19.1L174.64-19.1 174.74-22.95 179.89-22.95 179.89 0 174.79 0 174.69-4.05Q173.84-2.25 171.59-0.88 169.34 0.5 166.53 0.5L166.53 0.5ZM167.44-4Q170.28-4 172.24-5.98 174.19-7.95 174.19-11.15L174.19-11.15 174.19-11.5Q174.19-13.65 173.29-15.35 172.39-17.05 170.84-18 169.28-18.95 167.44-18.95L167.44-18.95Q164.24-18.95 162.49-16.88 160.74-14.8 160.74-11.5L160.74-11.5Q160.74-8.15 162.46-6.08 164.19-4 167.44-4L167.44-4ZM197.83 0.5Q194.43 0.5 191.71-0.98 188.98-2.45 187.38-5.23 185.78-8 185.78-11.75L185.78-11.75Q185.78-15.3 187.26-17.98 188.73-20.65 191.41-22.1 194.08-23.55 197.58-23.55L197.58-23.55Q200.23-23.55 202.16-22.88 204.08-22.2 205.18-21.2L205.18-21.2 202.78-16.85Q200.68-18.95 198.03-18.95L198.03-18.95Q194.83-18.95 193.16-17 191.48-15.05 191.48-11.8L191.48-11.8Q191.48-8.1 193.21-6.05 194.93-4 198.03-4L198.03-4Q199.58-4 201.06-4.45 202.53-4.9 203.33-5.5L203.33-5.5 205.28-1.7Q204.18-0.85 202.21-0.18 200.23 0.5 197.83 0.5L197.83 0.5ZM222.48-13.35L231.18 0 224.83 0 220.18-7.5 218.88-10.05 215.88-6.8 215.88 0 210.68 0 210.68-36.75 215.83-36.75 215.83-16.6 215.73-12.7 224.48-22.95 231.13-22.95 222.48-13.35ZM246.33 0.5Q242.23 0.5 239.48-1.13 236.73-2.75 235.43-5.48 234.13-8.2 234.13-11.45L234.13-11.45Q234.13-15.1 235.65-17.85 237.18-20.6 239.88-22.08 242.58-23.55 245.98-23.55L245.98-23.55Q251.28-23.55 253.85-20.63 256.43-17.7 256.43-12.4L256.43-12.4Q256.43-11.05 256.28-9.6L256.28-9.6 239.78-9.6Q240.33-6.55 241.95-5.2 243.58-3.85 246.48-3.85L246.48-3.85Q248.88-3.85 250.43-4.25 251.98-4.65 253.28-5.35L253.28-5.35 254.93-1.5Q253.68-0.7 251.53-0.1 249.38 0.5 246.33 0.5L246.33 0.5ZM239.78-13.35L251.18-13.35Q251.23-16.45 249.83-17.73 248.43-19 245.83-19L245.83-19Q240.58-19 239.78-13.35L239.78-13.35ZM261.93 0L261.93-22.95 267.33-22.95 267.33-18.45Q268.13-20.75 269.93-22.15 271.73-23.55 274.03-23.55L274.03-23.55Q275.63-23.55 276.23-23.25L276.23-23.25 275.48-17.8Q275.03-18.1 273.53-18.1L273.53-18.1Q271.18-18.1 269.25-16.6 267.33-15.1 267.33-11.8L267.33-11.8 267.33 0 261.93 0ZM287.92 0.5Q285.52 0.5 282.95-0.13 280.37-0.75 279.27-1.6L279.27-1.6 281.07-5.85Q284.07-3.75 287.92-3.75L287.92-3.75Q291.77-3.75 291.77-6L291.77-6Q291.77-7 290.97-7.55 290.17-8.1 288.12-8.85L288.12-8.85 286.22-9.55Q283.22-10.75 281.47-12.43 279.72-14.1 279.72-16.85L279.72-16.85Q279.72-20 282.2-21.78 284.67-23.55 288.82-23.55L288.82-23.55Q290.87-23.55 292.85-23.1 294.82-22.65 295.87-21.95L295.87-21.95 293.92-17.65Q293.27-18.3 291.85-18.78 290.42-19.25 288.67-19.25L288.67-19.25Q285.12-19.25 285.12-17.1L285.12-17.1Q285.12-15.9 286.07-15.28 287.02-14.65 289.17-13.9L289.17-13.9Q289.37-13.85 290.72-13.35L290.72-13.35Q293.92-12.1 295.47-10.5 297.02-8.9 297.02-6.4L297.02-6.4Q297.02-3 294.45-1.25 291.87 0.5 287.92 0.5L287.92 0.5Z" opacity="1" transform="matrix(1,0,0,1,0,0)" fill="#ffffff" class="wordmark-text-0" data-fill-palette-color="primary" id="text-0"></path></svg></g></svg></g></svg></g></svg></g><g><svg viewBox="0 0 51.56188615100525 68.89247788868212" height="68.89247788868212" width="51.56188615100525"><g><svg xmlns="http://www.w3.org/2000/svg" xmlns:xlink="http://www.w3.org/1999/xlink" version="1.1" x="0" y="0" viewBox="0 0 74.844 100" enable-background="new 0 0 74.844 100" xml:space="preserve" id="icon-0" width="51.56188615100525" height="68.89247788868212" class="icon-icon-0" data-fill-palette-color="accent"><path d="M65.378 100H74.844L58.021 75.046C61.25 74.538 63.919 73.047 66.042 70.599 68.177 68.152 69.245 65.247 69.245 61.895V13.145C69.245 9.538 67.956 6.446 65.378 3.861 62.786 1.283 59.622 0 55.898 0H18.945C15.195 0 12.044 1.283 9.466 3.861 6.888 6.445 5.599 9.538 5.599 13.145V61.895C5.599 65.248 6.693 68.184 8.893 70.697 11.081 73.211 13.724 74.656 16.823 75.047L0 100H9.466L11.08 97.598H63.762zM59.753 66.921C58.607 68.079 57.109 68.665 55.313 68.665 53.633 68.665 52.214 68.079 51.055 66.921 49.896 65.755 49.31 64.284 49.31 62.474 49.31 60.801 49.896 59.356 51.055 58.125 52.214 56.901 53.633 56.282 55.313 56.282 57.11 56.282 58.607 56.901 59.753 58.125 60.911 59.355 61.497 60.801 61.497 62.474 61.497 64.284 60.911 65.755 59.753 66.921M13.724 14.375C13.724 12.572 14.31 11.087 15.469 9.922 16.615 8.763 18.099 8.184 19.909 8.184H54.922C56.732 8.184 58.242 8.764 59.466 9.922 60.703 11.088 61.316 12.572 61.316 14.375V29.974C61.316 31.784 60.704 33.268 59.466 34.427 58.242 35.586 56.732 36.158 54.922 36.158H19.909C18.099 36.158 16.615 35.585 15.469 34.427 14.31 33.268 13.724 31.783 13.724 29.974zM15.078 66.921C13.906 65.755 13.333 64.284 13.333 62.474 13.333 60.801 13.906 59.356 15.078 58.125 16.25 56.901 17.721 56.282 19.531 56.282 21.198 56.282 22.617 56.901 23.789 58.125 24.948 59.355 25.534 60.801 25.534 62.474 25.534 64.285 24.948 65.755 23.789 66.921 22.617 68.079 21.198 68.665 19.531 68.665 17.721 68.665 16.25 68.079 15.078 66.921M16.498 89.538L20.886 82.981H53.959L58.36 89.538z" fill="#ffffff" data-fill-palette-color="accent"></path></svg></g></svg></g></svg></g><defs></defs></svg><rect width="395.52" height="57.351177333030364" fill="none" stroke="none" visibility="hidden"></rect></g></svg></g></svg>